<svg xmlns="http://www.w3.org/2000/svg" width="40.032" height="40.032">
    <path fill="#FFF" fill-rule="evenodd" d="M30 23.999c0 .653-.419 1.202-1 1.409v1.683a1.498 1.498 0 0 1-.5 2.908A1.495 1.495 0 0 1 27.092 29h-1.684a1.495 1.495 0 0 1-1.408.999A1.494 1.494 0 0 1 22.592 29h-1.684a1.495 1.495 0 0 1-1.408.999A1.494 1.494 0 0 1 18.092 29h-1.684a1.494 1.494 0 0 1-1.408.999A1.494 1.494 0 0 1 13.592 29h-1.684a1.495 1.495 0 0 1-1.408.999A1.494 1.494 0 0 1 9.092 29H7.408A1.494 1.494 0 0 1 6 29.999 1.494 1.494 0 0 1 4.592 29H2.908A1.495 1.495 0 0 1 0 28.5c0-.652.419-1.202 1-1.409v-1.683c-.581-.207-1-.756-1-1.409 0-.652.419-1.201 1-1.407v-1.684c-.581-.207-1-.757-1-1.408 0-.652.419-1.202 1-1.409v-1.683c-.581-.207-1-.756-1-1.408 0-.653.419-1.202 1-1.409v-1.684c-.581-.206-1-.755-1-1.407s.419-1.202 1-1.408V7.408c-.581-.207-1-.756-1-1.409 0-.652.419-1.201 1-1.407V2.908A1.497 1.497 0 1 1 2.908.999h1.684A1.494 1.494 0 0 1 6 0c.652 0 1.202.418 1.408.999h1.684A1.494 1.494 0 0 1 10.5 0c.652 0 1.201.418 1.408.999h1.684A1.494 1.494 0 0 1 15 0c.652 0 1.202.418 1.408.999h1.684A1.494 1.494 0 0 1 19.5 0c.652 0 1.201.418 1.408.999h1.684A1.494 1.494 0 0 1 24 0c.652 0 1.201.418 1.408.999h1.684A1.495 1.495 0 0 1 30 1.5c0 .651-.419 1.201-1 1.408v1.684c.581.206 1 .755 1 1.407 0 .653-.419 1.202-1 1.409v1.684c.581.206 1 .756 1 1.408 0 .652-.419 1.201-1 1.407v1.684c.581.207 1 .756 1 1.409 0 .652-.419 1.201-1 1.408v1.683c.581.207 1 .757 1 1.409 0 .651-.419 1.201-1 1.408v1.684c.581.206 1 .755 1 1.407zm-4-20H4V26h22V3.999zM13 20l7-8.5 4.5 6.999V24.5h-19l6-6.001L13 20zm-3-7.001A2.999 2.999 0 1 1 10 7a3 3 0 1 1 0 5.999z"/>
</svg>
